<?xml version="1.0" encoding="UTF-8" standalone="no"?>
<!DOCTYPE svg PUBLIC "-//W3C//DTD SVG 20010904//EN"
              "http://www.w3.org/TR/2001/REC-SVG-20010904/DTD/svg10.dtd">

<svg xmlns="http://www.w3.org/2000/svg"
     width="5.25in" height="0.766667in"
     viewBox="0 0 1575 230">
  <path id="パス"
        fill="black" stroke="black" stroke-width="1"
        d="M 183.88,224.00
           C 183.88,224.00 163.67,224.00 163.67,224.00
             163.67,224.00 47.92,29.00 47.92,29.00
             47.92,29.00 47.92,208.00 47.92,208.00
             47.92,208.00 76.91,208.00 76.91,208.00
             80.77,208.00 83.51,208.73 85.12,210.19
             86.75,211.65 87.56,213.59 87.56,216.00
             87.56,218.28 86.75,220.19 85.12,221.72
             83.51,223.24 80.77,224.00 76.91,224.00
             76.91,224.00 19.11,224.00 19.11,224.00
             15.24,224.00 12.50,223.24 10.88,221.72
             9.26,220.19 8.45,218.28 8.45,216.00
             8.45,213.59 9.26,211.65 10.88,210.19
             12.50,208.73 15.24,208.00 19.11,208.00
             19.11,208.00 32.20,208.00 32.20,208.00
             32.20,208.00 32.20,21.00 32.20,21.00
             32.20,21.00 11.08,21.00 11.08,21.00
             7.34,21.00 4.66,20.27 3.03,18.81
             1.41,17.36 0.61,15.42 0.61,13.00
             0.61,10.59 1.41,8.65 3.03,7.19
             4.66,5.73 7.34,5.00 11.08,5.00
             11.08,5.00 52.22,5.00 52.22,5.00
             52.22,5.00 168.17,200.00 168.17,200.00
             168.17,200.00 168.17,21.00 168.17,21.00
             168.17,21.00 139.17,21.00 139.17,21.00
             135.43,21.00 132.75,20.27 131.12,18.81
             129.51,17.36 128.70,15.42 128.70,13.00
             128.70,10.59 129.48,8.65 131.03,7.19
             132.59,5.73 135.30,5.00 139.17,5.00
             139.17,5.00 197.16,5.00 197.16,5.00
             200.89,5.00 203.57,5.73 205.19,7.19
             206.81,8.65 207.62,10.59 207.62,13.00
             207.62,15.42 206.81,17.36 205.19,18.81
             203.57,20.27 200.89,21.00 197.16,21.00
             197.16,21.00 183.88,21.00 183.88,21.00
             183.88,21.00 183.88,224.00 183.88,224.00 Z
           M 417.05,105.00
           C 417.05,105.00 417.05,127.00 417.05,127.00
             417.05,127.00 256.78,127.00 256.78,127.00
             256.78,127.00 256.78,105.00 256.78,105.00
             256.78,105.00 417.05,105.00 417.05,105.00 Z
           M 636.02,26.84
           C 636.02,26.84 636.02,15.64 636.02,15.64
             636.02,11.84 636.73,9.12 638.16,7.47
             639.59,5.82 641.50,5.00 643.88,5.00
             646.25,5.00 648.15,5.82 649.58,7.45
             651.02,9.08 651.73,11.77 651.73,15.52
             651.73,15.52 651.73,59.30 651.73,59.30
             651.73,63.17 651.02,65.93 649.58,67.56
             648.15,69.19 646.25,70.00 643.88,70.00
             641.75,70.00 639.97,69.26 638.53,67.77
             637.10,66.27 636.27,63.84 636.02,60.47
             635.39,50.01 629.72,40.73 619.00,32.64
             604.53,21.55 588.07,16.00 569.62,16.00
             557.53,16.00 546.12,18.65 535.41,23.95
             527.43,27.78 521.07,32.46 516.33,38.00
             508.10,47.74 501.55,58.52 496.69,70.33
             493.20,79.04 491.45,88.87 491.45,99.81
             491.45,99.81 491.45,127.23 491.45,127.23
             491.45,150.62 499.93,170.93 516.89,188.16
             533.85,205.39 553.55,214.00 575.98,214.00
             589.45,214.00 601.52,211.09 612.17,205.28
             622.84,199.46 633.16,190.67 643.12,178.91
             645.25,176.30 647.62,175.00 650.23,175.00
             652.48,175.00 654.29,175.69 655.66,177.06
             657.03,178.43 657.72,180.17 657.72,182.30
             657.72,185.16 655.04,189.53 649.67,195.39
             639.45,206.87 627.95,215.51 615.17,221.31
             602.39,227.10 589.45,230.00 576.36,230.00
             565.02,230.00 553.48,227.82 541.77,223.45
             532.79,220.09 525.36,216.16 519.50,211.67
             513.64,207.18 506.45,199.61 497.91,188.95
             489.36,178.30 483.54,168.45 480.42,159.42
             477.30,150.38 475.75,140.43 475.75,129.58
             475.75,129.58 475.75,97.61 475.75,97.61
             475.75,82.15 479.89,66.35 488.19,50.20
             496.48,34.06 507.82,21.66 522.22,13.00
             536.62,4.34 552.24,0.00 569.06,0.00
             595.00,0.00 617.32,8.95 636.02,26.84 Z
           M 892.95,115.00
           C 892.95,135.95 888.71,155.37 880.23,173.25
             871.75,191.14 860.07,205.07 845.17,215.05
             830.27,225.02 814.29,230.00 797.20,230.00
             771.89,230.00 749.60,219.25 730.34,197.75
             711.08,176.24 701.45,148.66 701.45,115.00
             701.45,81.22 711.08,53.61 730.34,32.17
             749.60,10.73 771.89,0.00 797.20,0.00
             814.29,0.00 830.24,4.99 845.08,14.97
             859.91,24.94 871.60,38.84 880.14,56.66
             888.68,74.48 892.95,93.93 892.95,115.00 Z
           M 877.05,115.00
           C 877.05,89.52 869.63,66.65 854.80,46.39
             839.96,26.13 820.76,16.00 797.19,16.00
             775.12,16.00 756.27,25.67 740.62,45.00
             724.98,64.32 717.16,87.66 717.16,115.00
             717.16,144.09 725.35,167.86 741.75,186.31
             758.14,204.77 776.62,214.00 797.19,214.00
             820.76,214.00 839.96,203.90 854.80,183.70
             869.63,163.51 877.05,140.61 877.05,115.00 Z
           M 1103.88,224.00
           C 1103.88,224.00 1083.67,224.00 1083.67,224.00
             1083.67,224.00 967.92,29.00 967.92,29.00
             967.92,29.00 967.92,208.00 967.92,208.00
             967.92,208.00 996.91,208.00 996.91,208.00
             1000.77,208.00 1003.51,208.73 1005.12,210.19
             1006.75,211.65 1007.56,213.59 1007.56,216.00
             1007.56,218.28 1006.75,220.19 1005.12,221.72
             1003.51,223.24 1000.77,224.00 996.91,224.00
             996.91,224.00 939.11,224.00 939.11,224.00
             935.24,224.00 932.50,223.24 930.88,221.72
             929.26,220.19 928.45,218.28 928.45,216.00
             928.45,213.59 929.26,211.65 930.88,210.19
             932.50,208.73 935.24,208.00 939.11,208.00
             939.11,208.00 952.20,208.00 952.20,208.00
             952.20,208.00 952.20,21.00 952.20,21.00
             952.20,21.00 931.08,21.00 931.08,21.00
             927.34,21.00 924.66,20.27 923.03,18.81
             921.41,17.36 920.61,15.42 920.61,13.00
             920.61,10.59 921.41,8.65 923.03,7.19
             924.66,5.73 927.34,5.00 931.08,5.00
             931.08,5.00 972.22,5.00 972.22,5.00
             972.22,5.00 1088.17,200.00 1088.17,200.00
             1088.17,200.00 1088.17,21.00 1088.17,21.00
             1088.17,21.00 1059.17,21.00 1059.17,21.00
             1055.43,21.00 1052.75,20.27 1051.12,18.81
             1049.51,17.36 1048.70,15.42 1048.70,13.00
             1048.70,10.59 1049.48,8.65 1051.03,7.19
             1052.59,5.73 1055.30,5.00 1059.17,5.00
             1059.17,5.00 1117.16,5.00 1117.16,5.00
             1120.89,5.00 1123.57,5.73 1125.19,7.19
             1126.81,8.65 1127.62,10.59 1127.62,13.00
             1127.62,15.42 1126.81,17.36 1125.19,18.81
             1123.57,20.27 1120.89,21.00 1117.16,21.00
             1117.16,21.00 1103.88,21.00 1103.88,21.00
             1103.88,21.00 1103.88,224.00 1103.88,224.00 Z
           M 1313.11,21.02
           C 1313.11,21.02 1313.11,15.67 1313.11,15.67
             1313.11,11.86 1313.82,9.13 1315.25,7.48
             1316.69,5.83 1318.59,5.00 1320.97,5.00
             1323.34,5.00 1325.24,5.81 1326.67,7.44
             1328.11,9.05 1328.83,11.73 1328.83,15.48
             1328.83,15.48 1328.83,55.52 1328.83,55.52
             1328.83,59.27 1328.11,61.95 1326.67,63.58
             1325.24,65.20 1323.34,66.00 1320.97,66.00
             1318.72,66.00 1316.88,65.26 1315.44,63.77
             1314.01,62.28 1313.23,59.86 1313.11,56.52
             1312.49,46.11 1307.10,36.76 1296.94,28.45
             1286.78,20.15 1273.47,16.00 1257.02,16.00
             1239.68,16.00 1225.90,20.40 1215.67,29.20
             1205.45,38.01 1200.34,48.38 1200.34,60.33
             1200.34,66.48 1201.77,72.09 1204.64,77.14
             1207.52,82.20 1211.32,86.29 1216.05,89.44
             1220.79,92.57 1226.14,95.09 1232.12,97.00
             1238.11,98.91 1247.47,100.91 1260.19,103.00
             1281.51,106.51 1296.22,110.09 1304.33,113.72
             1315.17,118.62 1323.36,125.39 1328.91,134.05
             1334.46,142.70 1337.23,152.93 1337.23,164.72
             1337.23,182.78 1330.06,198.18 1315.72,210.91
             1301.38,223.64 1282.07,230.00 1257.77,230.00
             1230.46,230.00 1208.64,221.36 1192.31,204.08
             1192.31,204.08 1192.31,213.27 1192.31,213.27
             1192.31,217.10 1191.59,219.85 1190.16,221.52
             1188.73,223.17 1186.83,224.00 1184.45,224.00
             1182.20,224.00 1180.33,223.18 1178.83,221.55
             1177.34,219.91 1176.59,217.21 1176.59,213.45
             1176.59,213.45 1176.59,169.73 1176.59,169.73
             1176.59,165.85 1177.30,163.09 1178.73,161.45
             1180.17,159.82 1182.08,159.00 1184.45,159.00
             1186.70,159.00 1188.54,159.75 1189.97,161.25
             1191.41,162.74 1192.19,165.17 1192.31,168.53
             1192.94,180.01 1199.08,190.46 1210.73,199.88
             1222.39,209.29 1238.07,214.00 1257.77,214.00
             1277.46,214.00 1293.02,209.12 1304.42,199.34
             1315.83,189.57 1321.53,178.01 1321.53,164.64
             1321.53,156.48 1319.35,149.21 1314.98,142.84
             1310.62,136.47 1304.13,131.43 1295.53,127.72
             1289.55,125.12 1277.09,122.22 1258.14,119.00
             1232.08,114.62 1213.31,107.93 1201.84,98.92
             1190.38,89.91 1184.64,77.09 1184.64,60.44
             1184.64,43.92 1191.21,29.71 1204.36,17.83
             1217.52,5.95 1234.88,0.00 1256.45,0.00
             1278.39,0.00 1297.27,7.01 1313.11,21.02 Z
           M 1494.69,21.00
           C 1494.69,21.00 1494.69,208.00 1494.69,208.00
             1494.69,208.00 1535.45,208.00 1535.45,208.00
             1539.19,208.00 1541.87,208.73 1543.48,210.19
             1545.11,211.65 1545.92,213.59 1545.92,216.00
             1545.92,218.28 1545.11,220.19 1543.48,221.72
             1541.87,223.24 1539.19,224.00 1535.45,224.00
             1535.45,224.00 1438.02,224.00 1438.02,224.00
             1434.27,224.00 1431.59,223.24 1429.97,221.72
             1428.35,220.19 1427.55,218.28 1427.55,216.00
             1427.55,213.59 1428.35,211.65 1429.97,210.19
             1431.59,208.73 1434.27,208.00 1438.02,208.00
             1438.02,208.00 1478.78,208.00 1478.78,208.00
             1478.78,208.00 1478.78,21.00 1478.78,21.00
             1478.78,21.00 1414.45,21.00 1414.45,21.00
             1414.45,21.00 1414.45,74.00 1414.45,74.00
             1414.45,77.99 1413.73,80.82 1412.30,82.50
             1410.87,84.17 1408.97,85.00 1406.59,85.00
             1404.35,85.00 1402.48,84.17 1400.98,82.50
             1399.49,80.82 1398.75,77.99 1398.75,74.00
             1398.75,74.00 1398.75,5.00 1398.75,5.00
             1398.75,5.00 1574.72,5.00 1574.72,5.00
             1574.72,5.00 1574.72,74.00 1574.72,74.00
             1574.72,77.99 1574.00,80.82 1572.56,82.50
             1571.13,84.17 1569.23,85.00 1566.86,85.00
             1564.49,85.00 1562.59,84.17 1561.16,82.50
             1559.73,80.82 1559.02,77.99 1559.02,74.00
             1559.02,74.00 1559.02,21.00 1559.02,21.00
             1559.02,21.00 1494.69,21.00 1494.69,21.00 Z" />
</svg>
